<svg width="22" height="22" viewBox="0 0 22 22" fill="none" xmlns="http://www.w3.org/2000/svg">
<path d="M17 21V19C17 17.9391 16.5786 16.9217 15.8284 16.1716C15.0783 15.4214 14.0609 15 13 15H5C3.93913 15 2.92172 15.4214 2.17157 16.1716C1.42143 16.9217 1 17.9391 1 19V21" stroke="#5718FF" stroke-width="2" stroke-linecap="round" stroke-linejoin="round"/>
<path d="M9 11C11.7614 11 14 8.76142 14 6C14 3.23858 11.7614 1 9 1C6.23858 1 4 3.23858 4 6C4 8.76142 6.23858 11 9 11Z" stroke="#5718FF" stroke-width="2" stroke-linecap="round" stroke-linejoin="round"/>
<path d="M21 8V12" stroke="#5718FF" stroke-width="2" stroke-linecap="round" stroke-linejoin="round"/>
<path d="M19 10H23" stroke="#5718FF" stroke-width="2" stroke-linecap="round" stroke-linejoin="round"/>
</svg>
